<svg width="120" height="120" viewBox="0 0 120 120" fill="none" xmlns="http://www.w3.org/2000/svg">
<path d="M110.103 84.099L94.453 47.4989C91.603 40.7989 87.353 36.9989 82.503 36.7489C77.703 36.4989 73.053 39.8489 69.503 46.2489L60.003 63.299C58.003 66.899 55.153 69.049 52.053 69.299C48.9031 69.599 45.7531 67.949 43.2031 64.699L42.1031 63.299C38.5531 58.849 34.1531 56.699 29.6531 57.149C25.1531 57.599 21.3031 60.699 18.7531 65.749L10.1031 82.999C7.00313 89.249 7.30313 96.499 10.9531 102.399C14.6031 108.299 20.9531 111.849 27.9031 111.849H91.703C98.403 111.849 104.653 108.499 108.353 102.899C112.153 97.299 112.753 90.249 110.103 84.099Z" fill="#333333"/>
<path opacity="0.5" d="M34.8492 41.9006C44.1829 41.9006 51.749 34.3342 51.749 25.0006C51.749 15.6669 44.1829 8.10059 34.8492 8.10059C25.5156 8.10059 17.9492 15.6669 17.9492 25.0006C17.9492 34.3342 25.5156 41.9006 34.8492 41.9006Z" fill="#333333"/>
</svg>
