<svg width="120" height="120" viewBox="0 0 120 120" fill="none" xmlns="http://www.w3.org/2000/svg">
<path fill-rule="evenodd" clip-rule="evenodd" d="M76.638 37.71H43.362C26.4879 37.71 18.0509 37.71 13.3116 42.6441C8.57235 47.5783 9.6874 55.2015 11.9176 70.4475L14.0324 84.9055C15.7813 96.8615 16.6558 102.84 21.1417 106.42C25.6277 109.999 32.244 110 45.4767 110H74.523C87.756 110 94.3725 109.999 98.8585 106.42C103.345 102.84 104.219 96.8615 105.968 84.9055L108.083 70.4475C110.313 55.2015 111.427 47.5782 106.688 42.6441C101.949 37.71 93.512 37.71 76.638 37.71ZM72.906 78.971C75.698 77.24 75.698 72.7595 72.906 71.0285L56.048 60.578C53.3345 58.896 50 61.0855 50 64.549V85.4505C50 88.914 53.3345 91.1035 56.048 89.4215L72.906 78.971Z" fill="#333333"/>
<path opacity="0.4" d="M42.5478 10H77.4485C78.6105 9.99974 79.502 9.99954 80.281 10.0757C85.82 10.6176 90.354 13.9479 92.2765 18.4339H27.7197C29.6423 13.9479 34.176 10.6176 39.7151 10.0757C40.4942 9.99954 41.3854 9.99974 42.5478 10Z" fill="#333333"/>
<path opacity="0.7" d="M31.551 23.6133C24.5979 23.6133 18.8965 27.812 16.9939 33.3822C16.9542 33.4983 16.9162 33.6151 16.8799 33.7323C18.8706 33.1295 20.9424 32.7356 23.0398 32.4668C28.4416 31.7742 35.2683 31.7746 43.1985 31.775H77.659C85.589 31.7746 92.416 31.7742 97.8175 32.4668C99.915 32.7356 101.987 33.1295 103.977 33.7323C103.941 33.6151 103.903 33.4983 103.863 33.3822C101.961 27.812 96.2595 23.6133 89.3065 23.6133H31.551Z" fill="#333333"/>
</svg>
