<svg width="120" height="120" viewBox="0 0 120 120" fill="none" xmlns="http://www.w3.org/2000/svg">
<path opacity="0.5" d="M60 110C87.614 110 110 87.614 110 60C110 32.3857 87.614 10 60 10C32.3857 10 10 32.3857 10 60C10 87.614 32.3857 110 60 110Z" fill="#333333"/>
<path fill-rule="evenodd" clip-rule="evenodd" d="M60 36.25C62.071 36.25 63.75 37.9289 63.75 40V58.4465L75.1515 69.8485C76.616 71.313 76.616 73.687 75.1515 75.1515C73.687 76.616 71.313 76.616 69.8485 75.1515L57.3485 62.6515C56.645 61.9485 56.25 60.9945 56.25 60V40C56.25 37.9289 57.929 36.25 60 36.25Z" fill="#333333"/>
</svg>
