<svg width="36" height="36" viewBox="0 0 36 36" fill="none" xmlns="http://www.w3.org/2000/svg">
<path opacity="0.5" d="M3 18.3058C3 14.8732 3 13.1569 3.7788 11.7341C4.5576 10.3113 5.98042 9.42826 8.82604 7.66219L11.826 5.8003C14.8341 3.93343 16.3381 3 18 3C19.6618 3 21.1659 3.93343 24.174 5.8003L27.174 7.66218C30.0196 9.42826 31.4424 10.3113 32.2212 11.7341C33 13.1569 33 14.8732 33 18.3058V20.5875C33 26.4387 33 29.3644 31.2426 31.1821C29.4853 33 26.6568 33 21 33H15C9.34314 33 6.51472 33 4.75735 31.1821C3 29.3644 3 26.4387 3 20.5875V18.3058Z" fill="#333333"/>
<path d="M16.875 27C16.875 27.6213 17.3787 28.125 18 28.125C18.6213 28.125 19.125 27.6213 19.125 27V22.5C19.125 21.8787 18.6213 21.375 18 21.375C17.3787 21.375 16.875 21.8787 16.875 22.5V27Z" fill="#333333"/>
</svg>
