<svg width="36" height="37" viewBox="0 0 36 37" fill="none" xmlns="http://www.w3.org/2000/svg">
<path opacity="0.5" d="M23.3343 22.3215L22.651 23.0408C22.651 23.0408 21.0271 24.7505 16.5946 20.0838C12.1622 15.4173 13.786 13.7076 13.786 13.7076L14.2163 13.2547C15.2761 12.1389 15.376 10.3475 14.4514 9.03965L12.5599 6.36442C11.4154 4.74575 9.20394 4.53193 7.89217 5.91296L5.53777 8.39171C4.88734 9.07649 4.45147 9.96417 4.50433 10.9489C4.63956 13.4682 5.71606 18.8885 11.723 25.2128C18.0931 31.9193 24.0702 32.1858 26.5144 31.9446C27.2875 31.8683 27.9598 31.4514 28.5016 30.881L30.6325 28.6376C32.0709 27.1233 31.6653 24.5273 29.8249 23.468L26.9592 21.8184C25.7508 21.1229 24.2787 21.3272 23.3343 22.3215Z" fill="#333333"/>
<path d="M19.8892 3.31975C19.9885 2.70641 20.5683 2.29036 21.1816 2.38964C21.2196 2.39692 21.3418 2.41975 21.4057 2.434C21.5338 2.46251 21.7123 2.50639 21.9349 2.57123C22.3801 2.70089 23.002 2.91451 23.7484 3.2567C25.2429 3.94184 27.2316 5.14034 29.2953 7.20404C31.359 9.26774 32.5575 11.2565 33.2425 12.7509C33.5848 13.4973 33.7984 14.1192 33.928 14.5644C33.9928 14.787 34.0368 14.9655 34.0653 15.0935C34.0795 15.1575 34.09 15.2089 34.0972 15.2469L34.1059 15.2937C34.2051 15.907 33.7929 16.5109 33.1795 16.6102C32.568 16.7092 31.9918 16.295 31.8901 15.6847C31.887 15.6682 31.8783 15.6242 31.8691 15.5827C31.8505 15.4996 31.8186 15.3678 31.7679 15.1936C31.6663 14.8451 31.4901 14.3271 31.1973 13.6886C30.6126 12.4131 29.5611 10.6518 27.7042 8.79503C25.8475 6.93824 24.0862 5.88676 22.8108 5.30201C22.1722 5.00927 21.6543 4.83298 21.3057 4.73146C21.1315 4.68071 20.9125 4.63045 20.8294 4.61195C20.2189 4.51021 19.7902 3.93133 19.8892 3.31975Z" fill="#333333"/>
<path fill-rule="evenodd" clip-rule="evenodd" d="M20.2291 8.49397C20.3998 7.89655 21.0225 7.55062 21.6199 7.72131L21.3109 8.80303C21.6199 7.72131 21.6199 7.72131 21.6199 7.72131L21.6222 7.72194L21.6244 7.7226L21.6294 7.72405L21.6411 7.72753L21.6708 7.73677C21.6933 7.744 21.7216 7.75342 21.7552 7.76538C21.8226 7.78929 21.9117 7.82328 22.0209 7.87008C22.2394 7.96374 22.5379 8.10837 22.9048 8.32543C23.6389 8.75995 24.6412 9.48172 25.8187 10.6592C26.9962 11.8366 27.7179 12.8389 28.1524 13.5731C28.3695 13.9399 28.5141 14.2385 28.6078 14.457C28.6546 14.5662 28.6887 14.6553 28.7125 14.7226C28.7245 14.7563 28.7338 14.7845 28.7412 14.8072L28.7503 14.8368L28.7538 14.8485L28.7553 14.8535L28.7559 14.8558C28.7559 14.8558 28.7566 14.8579 27.6748 15.167L28.7566 14.8579C28.9273 15.4553 28.5813 16.078 27.984 16.2487C27.3916 16.4179 26.7744 16.0793 26.5975 15.4912L26.592 15.475C26.584 15.4525 26.5675 15.4081 26.5398 15.3433C26.4843 15.2138 26.3836 15.002 26.2162 14.7191C25.8817 14.154 25.2777 13.3001 24.2277 12.2502C23.1778 11.2002 22.3239 10.5962 21.7588 10.2617C21.4759 10.0943 21.2641 9.99366 21.1345 9.93816C21.0697 9.91039 21.0253 9.89383 21.0028 9.88584L20.9866 9.8803C20.3986 9.70348 20.0599 9.08631 20.2291 8.49397Z" fill="#333333"/>
</svg>
