<svg width="36" height="36" viewBox="0 0 36 36" fill="none" xmlns="http://www.w3.org/2000/svg">
<path opacity="0.5" d="M3 16.875C3 12.5258 6.02208 9 9.75 9C13.4779 9 16.5 12.5258 16.5 16.875V30H6.34884C4.49933 30 3 28.2509 3 26.0929V16.875Z" fill="#333333"/>
<path opacity="0.8" d="M16.5 16.875V30H21H22.5H29.6896C31.5178 30 33 28.271 33 26.138V16.875C33 12.5258 29.9779 9 26.25 9H9.75C13.4779 9 16.5 12.5258 16.5 16.875Z" fill="#333333"/>
<path d="M14.25 30V33C14.25 33.6213 14.7537 34.125 15.375 34.125C15.9963 34.125 16.5 33.6213 16.5 33V30H14.25Z" fill="#333333"/>
<path d="M22.5 30H20.25V33C20.25 33.6213 20.7537 34.125 21.375 34.125C21.9963 34.125 22.5 33.6213 22.5 33V30Z" fill="#333333"/>
<path fill-rule="evenodd" clip-rule="evenodd" d="M6.375 24C6.375 23.3787 6.87868 22.875 7.5 22.875H12C12.6213 22.875 13.125 23.3787 13.125 24C13.125 24.6213 12.6213 25.125 12 25.125H7.5C6.87868 25.125 6.375 24.6213 6.375 24Z" fill="#333333"/>
<path fill-rule="evenodd" clip-rule="evenodd" d="M26.0769 9.87707L26.461 9.80016C27.0846 9.67533 27.7294 9.73492 28.3221 9.97219C29.3575 10.3868 30.4899 10.4642 31.5687 10.1943L31.6609 10.1712C32.4464 9.97462 33 9.24449 33 8.40504V5.20926C33 4.10255 32.0037 3.28717 30.9681 3.54631C30.3735 3.69513 29.7493 3.65244 29.1784 3.42391L29.0689 3.38002C28.1133 2.99742 27.0737 2.90131 26.0681 3.10261L25.395 3.23736C24.5852 3.39948 24 4.13583 24 4.99269V15.421C24 16.017 24.465 16.5 25.0385 16.5C25.6121 16.5 26.0769 16.017 26.0769 15.421V9.87707Z" fill="#333333"/>
</svg>
