<svg width="158" height="158" viewBox="0 0 158 158" fill="none" xmlns="http://www.w3.org/2000/svg">
<rect width="158" height="158" fill="#F9F9F9"/>
<path d="M124.927 101.091L110.581 67.5407C107.968 61.399 104.072 57.9157 99.6266 57.6865C95.2266 57.4574 90.9641 60.5282 87.7099 66.3948L79.0016 82.0241C77.1683 85.3241 74.5558 87.2949 71.7141 87.5241C68.8267 87.7991 65.9392 86.2866 63.6017 83.3074L62.5934 82.0241C59.3392 77.9449 55.3059 75.9741 51.1809 76.3866C47.0559 76.7991 43.5267 79.6408 41.1892 84.2699L33.2601 100.082C30.4184 105.812 30.6934 112.457 34.0392 117.866C37.3851 123.274 43.2059 126.528 49.5767 126.528H108.06C114.202 126.528 119.931 123.457 123.322 118.324C126.806 113.191 127.356 106.728 124.927 101.091Z" fill="#EBEBE7"/>
<path d="M79.4905 96.6785V115.339M88.8209 106.009L70.1602 106.009" stroke="#F9F9F9" stroke-width="4" stroke-linecap="round"/>
<path opacity="0.5" d="M55.9448 62.4089C64.5006 62.4089 71.4363 55.473 71.4363 46.9172C71.4363 38.3614 64.5006 31.4255 55.9448 31.4255C47.389 31.4255 40.4531 38.3614 40.4531 46.9172C40.4531 55.473 47.389 62.4089 55.9448 62.4089Z" fill="#EBEBE7"/>
</svg>
