<svg width="310" height="158" viewBox="0 0 310 158" fill="none" xmlns="http://www.w3.org/2000/svg">
<rect width="310" height="158" fill="#F9F9F9"/>
<path d="M200.092 100.689L186.007 67.749C183.442 61.719 179.617 58.299 175.252 58.074C170.932 57.849 166.747 60.864 163.552 66.624L155.002 81.9691C153.202 85.2091 150.637 87.1441 147.847 87.3691C145.012 87.6391 142.177 86.1541 139.882 83.2291L138.892 81.9691C135.697 77.9641 131.737 76.0291 127.687 76.4341C123.637 76.8391 120.172 79.6291 117.877 84.1741L110.092 99.6991C107.302 105.324 107.572 111.849 110.857 117.159C114.142 122.469 119.857 125.664 126.112 125.664H183.532C189.562 125.664 195.187 122.649 198.517 117.609C201.937 112.569 202.477 106.224 200.092 100.689Z" fill="#EBEBE7"/>
<path d="M155.481 96.3572V114.679M164.642 105.518L146.32 105.518" stroke="#F9F9F9" stroke-width="4" stroke-linecap="round"/>
<path opacity="0.5" d="M132.362 62.7105C140.763 62.7105 147.572 55.9008 147.572 47.5005C147.572 39.1002 140.763 32.2905 132.362 32.2905C123.962 32.2905 117.152 39.1002 117.152 47.5005C117.152 55.9008 123.962 62.7105 132.362 62.7105Z" fill="#EBEBE7"/>
</svg>
