<svg width="62" height="24" viewBox="0 0 62 24" fill="none" xmlns="http://www.w3.org/2000/svg">
<path d="M28.9512 11.6726V18.7486H26.6904V1.2749H32.6839C34.2029 1.2749 35.4982 1.77783 36.5579 2.78368C37.6412 3.78952 38.1829 5.01759 38.1829 6.46788C38.1829 7.95326 37.6412 9.18133 36.5579 10.1755C35.51 11.1696 34.2147 11.6609 32.6839 11.6609H28.9512V11.6726ZM28.9512 3.42695V9.52051H32.731C33.6259 9.52051 34.3795 9.21642 34.9683 8.61993C35.5688 8.02343 35.875 7.29829 35.875 6.47957C35.875 5.67256 35.5688 4.95911 34.9683 4.36262C34.3795 3.74274 33.6377 3.43864 32.731 3.43864H28.9512V3.42695Z" fill="#333333"/>
<path d="M44.0945 6.39771C45.7665 6.39771 47.0853 6.84215 48.0509 7.73104C49.0165 8.61992 49.4992 9.8363 49.4992 11.3802V18.7486H47.3444V17.0878H47.2502C46.32 18.4562 45.0718 19.1345 43.5175 19.1345C42.1869 19.1345 41.08 18.7486 40.1851 17.9649C39.2902 17.1813 38.8428 16.2106 38.8428 15.041C38.8428 13.8012 39.3138 12.8188 40.2558 12.0936C41.1978 11.3568 42.4577 10.9942 44.0238 10.9942C45.3662 10.9942 46.473 11.2398 47.3326 11.731V11.2164C47.3326 10.4328 47.0265 9.77782 46.4024 9.22811C45.7783 8.6784 45.0483 8.4094 44.2122 8.4094C42.9523 8.4094 41.9514 8.93571 41.2213 10L39.2313 8.76027C40.3264 7.18133 41.9514 6.39771 44.0945 6.39771ZM41.1742 15.0761C41.1742 15.6609 41.4215 16.1521 41.9278 16.538C42.4224 16.924 43.0112 17.1228 43.6823 17.1228C44.6361 17.1228 45.4839 16.772 46.2258 16.0702C46.9676 15.3685 47.3444 14.5497 47.3444 13.6024C46.6379 13.0527 45.6606 12.772 44.4006 12.772C43.4822 12.772 42.7168 12.9942 42.1045 13.4269C41.4804 13.8831 41.1742 14.4328 41.1742 15.0761Z" fill="#333333"/>
<path d="M61.7919 6.78369L54.2559 24.0001H51.9244L54.7269 17.9767L49.7578 6.78369H52.2188L55.7984 15.3685H55.8455L59.3309 6.78369H61.7919Z" fill="#333333"/>
<path d="M19.9579 10.2456C19.9579 9.51343 19.892 8.81284 19.7695 8.13916H10.293V11.9988L15.7507 12C15.5293 13.2842 14.817 14.3789 13.7254 15.1087V17.6128H16.9741C18.8711 15.869 19.9579 13.2912 19.9579 10.2456Z" fill="#4285F4"/>
<path d="M13.7265 15.1088C12.8222 15.7146 11.6576 16.069 10.2953 16.069C7.66354 16.069 5.43099 14.3076 4.63146 11.9333H1.28027V14.5158C2.94056 17.7883 6.35297 20.0339 10.2953 20.0339C13.02 20.0339 15.3091 19.1439 16.9753 17.6117L13.7265 15.1088Z" fill="#34A853"/>
<path d="M4.31633 10.0175C4.31633 9.35081 4.42819 8.70637 4.6319 8.10052V5.51807H1.28072C0.594228 6.87128 0.208008 8.39877 0.208008 10.0175C0.208008 11.6362 0.595406 13.1637 1.28072 14.5169L4.6319 11.9344C4.42819 11.3286 4.31633 10.6841 4.31633 10.0175Z" fill="#FABB05"/>
<path d="M10.2953 3.96491C11.7825 3.96491 13.1142 4.47368 14.1657 5.46783L17.0447 2.61052C15.2961 0.992982 13.0165 0 10.2953 0C6.35415 0 2.94056 2.24561 1.28027 5.51812L4.63146 8.10058C5.43099 5.72631 7.66354 3.96491 10.2953 3.96491Z" fill="#E94235"/>
</svg>
