<svg width="60" height="40" viewBox="0 0 60 40" fill="none" xmlns="http://www.w3.org/2000/svg">
<g clip-path="url(#clip0_2003_1291)">
<path opacity="0.5" d="M55.8622 0.0131836H4.13802C2.13837 0.0131836 0.517334 1.61929 0.517334 3.60053V36.3992C0.517334 38.3804 2.13837 39.9865 4.13802 39.9865H55.8622C57.8618 39.9865 59.4829 38.3804 59.4829 36.3992V3.60053C59.4829 1.61929 57.8618 0.0131836 55.8622 0.0131836Z" fill="#EBEBE7"/>
<path d="M35.4934 29.2005H24.7854V10.2754H35.4934V29.2005Z" fill="#333333"/>
<path d="M25.4712 19.7367C25.4712 15.8976 27.299 12.4778 30.1453 10.2741C28.0639 8.66255 25.437 7.70068 22.582 7.70068C15.8234 7.70068 10.3447 13.0893 10.3447 19.7367C10.3447 26.3839 15.8234 31.7725 22.582 31.7725C25.437 31.7725 28.0639 30.8107 30.1453 29.1992C27.299 26.9954 25.4712 23.5757 25.4712 19.7367Z" fill="#EBEBE7"/>
<path d="M49.9351 19.7367C49.9351 26.3839 44.4564 31.7725 37.6978 31.7725C34.8429 31.7725 32.216 30.8107 30.1338 29.1992C32.9809 26.9954 34.8086 23.5757 34.8086 19.7367C34.8086 15.8976 32.9809 12.4778 30.1338 10.2741C32.216 8.66255 34.8429 7.70068 37.6978 7.70068C44.4564 7.70068 49.9351 13.0893 49.9351 19.7367Z" fill="#575965"/>
</g>
<defs>
<clipPath id="clip0_2003_1291">
<rect width="60" height="40" fill="white"/>
</clipPath>
</defs>
</svg>
