<svg width="186" height="186" viewBox="0 0 186 186" fill="none" xmlns="http://www.w3.org/2000/svg">
<path d="M101.734 78.0766C101.734 78.0766 102.504 75.8533 104.175 75.0832C105.831 74.313 108.607 74.1968 108.607 74.1968L113.257 129.198L109.479 156.342C109.479 156.342 108.374 159.553 105.483 159.67C102.605 159.786 78.6434 159.67 76.5364 159.67C74.4293 159.67 73.7609 156.894 73.6592 155.674C73.5429 154.453 73.5865 152.404 73.5865 152.404L63.3565 152.36C63.3565 152.36 62.7607 156.72 63.7489 159.466C64.6062 161.849 65.3764 163.753 65.3618 164.567C65.3473 165.729 63.807 166.892 62.0342 166.79C60.2614 166.674 57.6021 164.349 55.8293 162.91C54.0565 161.471 25.6334 161.806 25.6334 161.806C25.6334 161.806 24.2675 164.334 22.7417 165.86C21.8262 166.775 20.344 167.226 19.0071 167.226C17.6703 167.226 16.0137 165.453 16.3479 164.232C16.6821 163.012 18.1934 160.207 18.4549 157.475C18.5712 156.24 18.4259 152.796 17.8156 152.23C17.6703 152.099 15.4615 152.171 13.3981 151.953C9.88152 151.59 6.36495 147.042 5.92902 143.496C5.47855 139.951 5.81276 128.747 5.81276 128.747L101.734 78.0766Z" fill="#B3AFAF"/>
<path d="M110.408 139.66H5.73961C5.73961 139.66 5.49257 142.595 6.00116 144.484C6.27082 145.487 6.72952 146.429 7.35258 147.26L109.812 147.245L110.408 139.66Z" fill="#9A9A9A"/>
<path d="M147.129 134.908L169.289 141.767L180.362 137.945C180.362 137.945 179.97 117.108 179.839 115C179.708 112.893 179.185 111.048 177.194 109.726C175.218 108.403 169.682 105.105 169.682 105.105C169.682 105.105 152.666 77.8005 151.213 75.8242C149.759 73.848 147.972 71.4358 143.744 71.0434C139.515 70.6511 113.417 70.9708 111.048 71.1016C108.68 71.2324 106.907 72.3077 106.907 77.4517C106.907 82.5958 107.038 121.859 107.168 123.835C107.299 125.812 117.195 133.063 117.195 133.063L147.129 134.908Z" fill="#E0E0E0"/>
<path d="M114.87 159.887C114.87 159.887 112.748 159.946 111.281 159.742C109.813 159.539 107.604 158.071 107.502 154.598C107.444 152.535 107.168 123.835 107.168 123.835L146.693 123.923L159.481 137.916L180.362 137.945C180.362 137.945 180.449 146.155 180.391 148.35C180.333 150.558 168.97 155.368 168.97 155.368L114.87 159.887Z" fill="#FFE661"/>
<path d="M180.391 148.349H156.589C156.589 148.349 151.488 138.177 136.826 138.352C115.291 138.613 114.855 159.873 114.855 159.873H170.946C174.099 159.873 178.604 158.826 179.752 154.845C180.725 151.503 180.391 148.349 180.391 148.349Z" fill="#D6C154"/>
<path d="M165.816 110.815C165.816 110.815 165.816 108.447 167.37 108.359C168.925 108.272 170.64 109.246 172.195 110.568C173.837 111.963 174.651 113.227 174.97 114.332C175.464 115.974 175.057 117.441 172.515 117.514C169.405 117.616 120.028 117.296 117.746 117.107C114.884 116.86 113.169 115.64 113.256 113.503C113.329 111.455 114.811 110.801 120.943 110.728C127.075 110.655 165.816 110.815 165.816 110.815Z" fill="white"/>
<path d="M179.897 117.747C179.897 117.747 165.06 117.282 164.74 117.645C164.29 118.183 164.203 125.187 164.363 126.248C164.522 127.308 165.917 128.049 167.632 128.122C169.347 128.195 180.144 128.369 180.144 128.369L179.897 117.747Z" fill="#FDEDC5"/>
<path d="M118.807 108.272C116.511 108.272 115.698 105.657 115.698 103.855V81.0551C115.698 79.2532 116.846 78.2796 120.435 78.1053C124.039 77.9454 140.459 78.1343 142.261 78.1925C145.036 78.2796 146.925 79.5003 149.454 83.0168C151.096 85.2982 161.224 102.067 162.038 103.448C162.852 104.843 163.84 108.519 159.582 108.592C155.179 108.679 118.807 108.272 118.807 108.272Z" fill="#575965"/>
<path d="M157.476 104.436H120.857C120.116 104.436 119.462 103.622 119.462 102.634C119.462 101.646 119.404 86.2138 119.375 85.2983C119.287 82.7698 121.177 82.1886 122.804 82.2758C124.446 82.363 140.983 82.3048 141.956 82.3484C143.831 82.4356 145.691 84.9495 147.318 87.4344C149.28 90.4423 157.476 104.436 157.476 104.436Z" fill="#AFE3FB"/>
<path d="M156.908 107.139C156.748 110.815 150.863 113.838 149.381 113.925C147.913 114.012 147.012 111.15 146.853 107.299C146.693 103.448 148.233 100.266 149.468 100.266C150.689 100.266 157.039 104.029 156.908 107.139Z" fill="#575965"/>
<path d="M155.629 162.198C155.513 169.463 149.73 179.911 137.146 179.984C124.561 180.057 118.022 170.408 118.429 160.512C118.836 150.457 126.639 143.351 137.872 143.671C148.378 143.99 155.789 152.157 155.629 162.198Z" fill="#575965"/>
<path d="M146.635 161.776C146.577 165.598 143.54 171.12 136.913 171.163C130.287 171.207 127.09 166.412 127.294 161.195C127.512 155.891 131.74 151.939 137.291 152.026C142.813 152.098 146.707 156.472 146.635 161.776Z" fill="#C8C8C8"/>
<path d="M59.723 162.198C59.6068 169.463 53.8234 179.911 41.2393 179.984C28.6552 180.057 22.1162 170.408 22.5231 160.512C22.9299 150.457 30.7332 143.351 41.9659 143.671C52.472 143.99 59.8829 152.157 59.723 162.198Z" fill="#575965"/>
<path d="M50.7285 161.776C50.6704 165.598 47.6333 171.12 41.0071 171.163C34.3954 171.207 31.184 166.412 31.3874 161.195C31.6054 155.891 35.834 151.939 41.3849 152.026C46.9068 152.098 50.8011 156.472 50.7285 161.776Z" fill="#C8C8C8"/>
<path d="M103.852 41.1549C103.852 37.2983 102.161 35.7527 99.0746 35.9146C95.9879 36.0618 11.3976 35.6055 8.63423 35.6055C5.87089 35.6055 4.7832 38.5347 4.7832 40.2275C4.7832 41.9203 5.31235 127.797 5.19476 129.46C5.09187 131.123 5.54752 133.434 8.47254 133.744C11.3976 134.053 98.1486 133.891 100.001 133.744C101.853 133.596 104.16 132.051 104.16 129.887C104.16 127.708 103.852 43.1568 103.852 41.1549Z" fill="#FFE661"/>
<path d="M97.1506 47.3878C97.1506 44.0499 95.6881 42.7122 93.0176 42.8523C90.3471 42.9797 17.1614 42.5848 14.7706 42.5848C12.3799 42.5848 11.4388 45.1201 11.4388 46.5852C11.4388 48.0503 11.8966 122.376 11.7949 123.816C11.7059 125.256 12.1001 127.256 14.6307 127.523C17.1614 127.791 92.2164 127.651 93.8188 127.523C95.4211 127.396 97.4176 126.058 97.4176 124.185C97.4176 122.3 97.1506 49.1205 97.1506 47.3878Z" fill="#FFE661"/>
<path d="M91.1762 52.4694C91.1762 49.6134 89.9198 48.4689 87.6254 48.5888C85.331 48.6978 22.4537 48.3599 20.3996 48.3599C18.3456 48.3599 17.5371 50.5291 17.5371 51.7827C17.5371 53.0363 17.9304 116.631 17.843 117.863C17.7665 119.095 18.1052 120.806 20.2794 121.035C22.4537 121.264 86.9371 121.144 88.3137 121.035C89.6903 120.926 91.4057 119.782 91.4057 118.179C91.4057 116.566 91.1762 53.9519 91.1762 52.4694Z" fill="#FFE661"/>
<path d="M86.1952 57.0852C86.1952 54.6133 85.1082 53.6227 83.1231 53.7265C81.138 53.8208 26.738 53.5283 24.9609 53.5283C23.1838 53.5283 22.4843 55.4058 22.4843 56.4908C22.4843 57.5758 22.8246 112.617 22.749 113.683C22.6828 114.749 22.9759 116.231 24.8569 116.429C26.738 116.627 82.5276 116.523 83.7186 116.429C84.9097 116.334 86.3937 115.344 86.3937 113.957C86.3937 112.561 86.1952 58.3683 86.1952 57.0852Z" fill="white"/>
</svg>
