<svg width="187" height="186" viewBox="0 0 187 186" fill="none" xmlns="http://www.w3.org/2000/svg">
<path d="M0.0927921 15.0974C0.0927921 6.75934 6.87182 0 15.2342 0H171.493C179.856 0 186.635 6.75934 186.635 15.0974V170.903C186.635 179.241 179.856 186 171.493 186H15.2342C6.87182 186 0.0927921 179.241 0.0927921 170.903V15.0974Z" fill="#AD9965"/>
<path d="M29.1643 47.2764C29.1643 37.1755 37.3766 28.987 47.507 28.987H139.221C149.351 28.987 157.563 37.1755 157.563 47.2764V138.724C157.563 148.825 149.351 157.013 139.221 157.013H47.507C37.3766 157.013 29.1643 148.825 29.1643 138.724V47.2764Z" fill="#F9F9F9"/>
<path d="M50.0083 55.5898C50.0083 52.3759 52.6213 49.7705 55.8446 49.7705H71.686C74.9093 49.7705 77.5223 52.3759 77.5223 55.5898V71.3852C77.5223 74.5992 74.9093 77.2046 71.686 77.2046H55.8446C52.6213 77.2046 50.0083 74.5992 50.0083 71.3852V55.5898Z" fill="#F9F9F9"/>
<path fill-rule="evenodd" clip-rule="evenodd" d="M55.8446 49.7705H71.686C74.9093 49.7705 77.5223 52.3759 77.5223 55.5898V71.3852C77.5223 74.5992 74.9093 77.2046 71.686 77.2046H55.8446C52.6213 77.2046 50.0083 74.5992 50.0083 71.3852V55.5898C50.0083 52.3759 52.6213 49.7705 55.8446 49.7705Z" fill="#F9F9F9"/>
<path fill-rule="evenodd" clip-rule="evenodd" d="M52.5095 42.2884H75.021C80.5467 42.2884 85.0262 46.7548 85.0262 52.2645V74.7106C85.0262 80.2202 80.5467 84.6866 75.021 84.6866H52.5095C46.9839 84.6866 42.5044 80.2202 42.5044 74.7106V52.2645C42.5044 46.7548 46.9839 42.2884 52.5095 42.2884ZM71.686 49.7705H55.8446C52.6213 49.7705 50.0083 52.3759 50.0083 55.5898V71.3852C50.0083 74.5992 52.6213 77.2046 55.8446 77.2046H71.686C74.9093 77.2046 77.5223 74.5992 77.5223 71.3852V55.5898C77.5223 52.3759 74.9093 49.7705 71.686 49.7705Z" fill="#333333"/>
<path d="M109.205 55.5898C109.205 52.3759 111.818 49.7705 115.042 49.7705H130.883C134.106 49.7705 136.719 52.3759 136.719 55.5898V71.3852C136.719 74.5992 134.106 77.2046 130.883 77.2046H115.042C111.818 77.2046 109.205 74.5992 109.205 71.3852V55.5898Z" fill="#F9F9F9"/>
<path fill-rule="evenodd" clip-rule="evenodd" d="M115.042 49.7705H130.883C134.106 49.7705 136.719 52.3759 136.719 55.5898V71.3852C136.719 74.5992 134.106 77.2046 130.883 77.2046H115.042C111.818 77.2046 109.205 74.5992 109.205 71.3852V55.5898C109.205 52.3759 111.818 49.7705 115.042 49.7705Z" fill="#F9F9F9"/>
<path fill-rule="evenodd" clip-rule="evenodd" d="M111.706 42.2884H134.218C139.744 42.2884 144.223 46.7548 144.223 52.2645V74.7106C144.223 80.2202 139.744 84.6866 134.218 84.6866H111.706C106.181 84.6866 101.701 80.2202 101.701 74.7106V52.2645C101.701 46.7548 106.181 42.2884 111.706 42.2884ZM130.883 49.7705H115.042C111.818 49.7705 109.205 52.3759 109.205 55.5898V71.3852C109.205 74.5992 111.818 77.2046 115.042 77.2046H130.883C134.106 77.2046 136.719 74.5992 136.719 71.3852V55.5898C136.719 52.3759 134.106 49.7705 130.883 49.7705Z" fill="#333333"/>
<path d="M50.0083 114.615C50.0083 111.401 52.6213 108.795 55.8446 108.795H71.686C74.9093 108.795 77.5223 111.401 77.5223 114.615V130.41C77.5223 133.624 74.9093 136.23 71.686 136.23H55.8446C52.6213 136.23 50.0083 133.624 50.0083 130.41V114.615Z" fill="#F9F9F9"/>
<path fill-rule="evenodd" clip-rule="evenodd" d="M55.8446 108.795H71.686C74.9093 108.795 77.5223 111.401 77.5223 114.615V130.41C77.5223 133.624 74.9093 136.23 71.686 136.23H55.8446C52.6213 136.23 50.0083 133.624 50.0083 130.41V114.615C50.0083 111.401 52.6213 108.795 55.8446 108.795Z" fill="#F9F9F9"/>
<path fill-rule="evenodd" clip-rule="evenodd" d="M52.5095 101.313H75.021C80.5467 101.313 85.0262 105.78 85.0262 111.289V133.736C85.0262 139.245 80.5467 143.712 75.021 143.712H52.5095C46.9839 143.712 42.5044 139.245 42.5044 133.736V111.289C42.5044 105.78 46.9839 101.313 52.5095 101.313ZM71.686 108.795H55.8446C52.6213 108.795 50.0083 111.401 50.0083 114.615V130.41C50.0083 133.624 52.6213 136.23 55.8446 136.23H71.686C74.9093 136.23 77.5223 133.624 77.5223 130.41V114.615C77.5223 111.401 74.9093 108.795 71.686 108.795Z" fill="#333333"/>
<path d="M101.701 107.548C101.701 104.105 104.501 101.313 107.955 101.313H113.791C117.244 101.313 120.044 104.105 120.044 107.548V113.368C120.044 116.811 117.244 119.603 113.791 119.603H107.955C104.501 119.603 101.701 116.811 101.701 113.368V107.548Z" fill="#333333"/>
<path d="M125.88 107.548C125.88 104.105 128.68 101.313 132.134 101.313H137.97C141.423 101.313 144.223 104.105 144.223 107.548V113.368C144.223 116.811 141.423 119.603 137.97 119.603H132.134C128.68 119.603 125.88 116.811 125.88 113.368V107.548Z" fill="#333333"/>
<path d="M125.88 131.657C125.88 128.214 128.68 125.422 132.134 125.422H137.97C141.423 125.422 144.223 128.214 144.223 131.657V137.477C144.223 140.92 141.423 143.712 137.97 143.712H132.134C128.68 143.712 125.88 140.92 125.88 137.477V131.657Z" fill="#333333"/>
<path d="M101.701 131.657C101.701 128.214 104.501 125.422 107.955 125.422H113.791C117.244 125.422 120.044 128.214 120.044 131.657V137.477C120.044 140.92 117.244 143.712 113.791 143.712H107.955C104.501 143.712 101.701 140.92 101.701 137.477V131.657Z" fill="#333333"/>
<path d="M36.1293 121.081L164.528 118.666L185.61 164.623C190.197 174.622 182.869 186 171.841 186H15.17C2.43401 186 -4.61199 171.276 3.40012 161.405L36.1293 121.081Z" fill="#8F7F56"/>
<path d="M19.4738 64.9188H156.352L184.341 23.539C191.123 13.5115 183.917 0 171.787 0H15.5888C4.8509 0 -2.47484 10.8356 1.55299 20.7605L19.4738 64.9188Z" fill="#CBB271"/>
</svg>
