<svg width="26" height="26" viewBox="0 0 26 26" fill="none" xmlns="http://www.w3.org/2000/svg">
<path d="M17.3333 17.3335L20.5833 17.334C22.3782 17.3337 23.8335 18.7886 23.8338 20.5835C23.834 22.3785 22.3792 23.8337 20.5842 23.834C18.7894 23.8343 17.334 22.3794 17.3338 20.5846L17.3333 17.3335Z" fill="#333333"/>
<path d="M5.41726 17.334L8.66726 17.3345L8.66675 20.5845C8.66647 22.3794 7.21116 23.8342 5.41624 23.834C3.62131 23.8337 2.16647 22.3784 2.16675 20.5834C2.16703 18.7886 3.62234 17.3337 5.41726 17.334Z" fill="#333333"/>
<path fill-rule="evenodd" clip-rule="evenodd" d="M20.5834 8.66699L17.3334 8.66648L17.334 5.41648C17.3342 3.62155 18.7895 2.16671 20.5844 2.16699C22.3794 2.16727 23.8342 3.62258 23.834 5.4175C23.8336 7.21242 22.3784 8.66727 20.5834 8.66699ZM8.66726 8.66646L8.66675 5.41648C8.66647 3.62155 7.21116 2.16671 5.41624 2.16699C3.62131 2.16727 2.16647 3.62258 2.16675 5.4175C2.16703 7.21242 3.62234 8.66727 5.41726 8.66699L8.66726 8.66646Z" fill="#333333"/>
<path opacity="0.5" d="M17.3334 8.66653L8.66726 8.6665L8.66675 17.3332H17.3334V8.66653Z" fill="#333333"/>
</svg>
