<svg width="56" height="23" viewBox="0 0 56 23" fill="none" xmlns="http://www.w3.org/2000/svg">
<path d="M11.3223 4.83862C12.8421 4.83862 14.0063 5.42261 14.8149 6.59058L14.7363 6.64673C14.6914 6.67668 14.639 6.71411 14.5791 6.75903C14.5192 6.79647 14.4443 6.85262 14.3545 6.92749C14.2721 7.00236 14.186 7.08097 14.0962 7.16333C14.0138 7.2382 13.924 7.33553 13.8267 7.45532C13.7293 7.56763 13.6395 7.68742 13.5571 7.8147C13.4748 7.94198 13.3924 8.08797 13.3101 8.25269C13.2277 8.40991 13.1566 8.57463 13.0967 8.74683C13.0443 8.91903 12.9993 9.10994 12.9619 9.31958C12.932 9.52922 12.917 9.74259 12.917 9.95972C12.917 10.4464 12.9993 10.9031 13.1641 11.3298C13.3288 11.7566 13.5159 12.0972 13.7256 12.3518C13.9352 12.5989 14.1673 12.8197 14.4219 13.0144C14.6764 13.2091 14.8673 13.3401 14.9946 13.4075C15.1294 13.4749 15.223 13.516 15.2754 13.531C15.2604 13.5909 15.2155 13.7219 15.1406 13.9241C15.0732 14.1262 14.9385 14.4369 14.7363 14.8562C14.5417 15.2755 14.3208 15.6685 14.0737 16.0354C13.8341 16.3798 13.6357 16.6531 13.4785 16.8552C13.3213 17.0499 13.1229 17.2708 12.8833 17.5178C12.6437 17.7574 12.3929 17.9333 12.1309 18.0457C11.8763 18.158 11.6068 18.2141 11.3223 18.2141C10.9329 18.2141 10.4725 18.0981 9.94092 17.866C9.40934 17.6264 8.90771 17.5066 8.43603 17.5066C7.95687 17.5066 7.43278 17.6301 6.86377 17.8772C6.29476 18.1168 5.84179 18.2366 5.50488 18.2366C5.24284 18.2366 4.98828 18.1804 4.74121 18.0681C4.50163 17.9633 4.26204 17.7948 4.02246 17.5627C3.79036 17.3306 3.58821 17.1023 3.41601 16.8777C3.24381 16.6531 3.02669 16.3573 2.76465 15.9905C2.22558 15.2193 1.78011 14.3097 1.42822 13.2615C1.08382 12.2058 0.911619 11.1651 0.911619 10.1394C0.911619 9.30835 1.0389 8.55591 1.29346 7.88208C1.54801 7.20076 1.88493 6.64673 2.3042 6.21997C2.73096 5.79321 3.20263 5.46379 3.71924 5.23169C4.24332 4.99959 4.78613 4.88354 5.34765 4.88354C5.76693 4.88354 6.29476 5.01082 6.93115 5.26538C7.57503 5.51994 8.00179 5.64722 8.21142 5.64722C8.39111 5.64722 8.8291 5.51245 9.52539 5.24292C10.2217 4.97339 10.8206 4.83862 11.3223 4.83862ZM10.7046 3.38989C10.4051 3.74927 10.027 4.04875 9.57031 4.28833C9.12109 4.52791 8.69808 4.64771 8.30127 4.64771C8.21891 4.64771 8.1403 4.64022 8.06543 4.62524C8.04297 4.5354 8.03174 4.43058 8.03174 4.31079C8.03174 3.46476 8.35368 2.6674 8.99756 1.9187C9.3195 1.54435 9.72379 1.2299 10.2104 0.975342C10.6971 0.720785 11.1576 0.586019 11.5918 0.571045C11.6143 0.668376 11.6255 0.784424 11.6255 0.919189C11.6255 1.82511 11.3185 2.64868 10.7046 3.38989ZM20.228 1.82886H26.5283C28.1455 1.82886 29.4595 2.33049 30.4702 3.33374C31.481 4.32951 31.9863 5.63599 31.9863 7.25317C31.9863 8.86287 31.466 10.1694 30.4253 11.1726C29.3921 12.1759 28.0519 12.6775 26.4048 12.6775H23.1255V18.0344H20.228V1.82886ZM23.1255 4.19849V10.3416H25.7534C26.7941 10.3416 27.6027 10.072 28.1792 9.53296C28.7557 8.9939 29.0439 8.23397 29.0439 7.25317C29.0439 6.27987 28.7557 5.52743 28.1792 4.99585C27.6102 4.46427 26.8053 4.19849 25.7646 4.19849H23.1255ZM37.2983 16.114C38.0994 16.114 38.7733 15.8782 39.3198 15.4065C39.8739 14.9273 40.1509 14.3321 40.1509 13.6208V12.7112L37.3994 12.8796C36.7256 12.9246 36.2015 13.093 35.8271 13.385C35.4603 13.6695 35.2769 14.0476 35.2769 14.5193C35.2769 15.0059 35.4603 15.3953 35.8271 15.6873C36.2015 15.9718 36.6919 16.114 37.2983 16.114ZM36.4561 18.2253C35.2956 18.2253 34.341 17.8922 33.5923 17.2258C32.8511 16.5595 32.4805 15.6947 32.4805 14.6316C32.4805 13.5759 32.8698 12.7411 33.6484 12.1272C34.4346 11.5133 35.5539 11.1614 37.0063 11.0715L40.1509 10.8918V10.0383C40.1509 9.41691 39.9525 8.934 39.5557 8.5896C39.1663 8.2452 38.6235 8.073 37.9272 8.073C37.2759 8.073 36.7443 8.21899 36.3325 8.51099C35.9207 8.80298 35.6699 9.19979 35.5801 9.70142H32.9858C33.0457 8.57088 33.5286 7.65373 34.4346 6.94995C35.348 6.23869 36.5496 5.88306 38.0396 5.88306C39.5145 5.88306 40.6937 6.24243 41.5771 6.96118C42.4681 7.67993 42.9136 8.63826 42.9136 9.83618V18.0344H40.2183V16.1365H40.1621C39.8252 16.7729 39.3161 17.282 38.6348 17.6638C37.9535 18.0382 37.2272 18.2253 36.4561 18.2253ZM46.4512 22.4592C45.8447 22.4592 45.4779 22.4443 45.3506 22.4143V20.2019C45.4779 20.2319 45.7474 20.2468 46.1592 20.2468C46.7357 20.2468 47.1849 20.127 47.5068 19.8875C47.8288 19.6479 48.0684 19.2548 48.2256 18.7083C48.2256 18.7008 48.2518 18.5922 48.3042 18.3826C48.3641 18.1729 48.3903 18.0606 48.3828 18.0457L44.1489 6.13013H47.2036L50.0112 15.6536H50.0562L52.8638 6.13013H55.8062L51.5049 18.5061C50.9958 19.981 50.3669 21.0068 49.6182 21.5833C48.8695 22.1672 47.8138 22.4592 46.4512 22.4592Z" fill="black"/>
</svg>
