<svg width="120" height="120" viewBox="0 0 120 120" fill="none" xmlns="http://www.w3.org/2000/svg">
<path opacity="0.5" fill-rule="evenodd" clip-rule="evenodd" d="M69.4496 10.761C67.524 9.99976 65.0826 9.99976 60.1998 9.99976C55.317 9.99976 52.8756 9.99976 50.95 10.761C48.3823 11.7759 46.3423 13.7227 45.2787 16.1729C44.7932 17.2915 44.6032 18.5923 44.5288 20.4897C44.4196 23.2782 42.921 25.8592 40.3887 27.2544C37.8563 28.6496 34.7647 28.5975 32.1795 27.2936C30.4203 26.4063 29.1448 25.9129 27.8869 25.7549C25.1315 25.4087 22.3447 26.1212 20.1398 27.7358C18.4861 28.9467 17.2654 30.9643 14.8241 34.9994C12.3827 39.0346 11.1621 41.0522 10.89 43.0243C10.5272 45.6538 11.2739 48.3131 12.9659 50.4173C13.7381 51.3778 14.8234 52.1847 16.5078 53.1948C18.9841 54.6798 20.5775 57.2093 20.5773 59.9998C20.5771 62.7902 18.9839 65.3192 16.5078 66.8037C14.8231 67.8143 13.7376 68.6217 12.9653 69.5823C11.2734 71.6862 10.5267 74.3453 10.8895 76.9748C11.1616 78.9468 12.3823 80.9648 14.8236 84.9997C17.2649 89.0348 18.4856 91.0527 20.1393 92.2632C22.3442 93.8777 25.1309 94.5902 27.8864 94.2442C29.1442 94.0863 30.4197 93.5928 32.1787 92.7057C34.7641 91.4017 37.8559 91.3497 40.3884 92.7447C42.9209 94.1402 44.4195 96.7212 44.5288 99.5102C44.6032 101.407 44.7932 102.708 45.2787 103.827C46.3423 106.277 48.3823 108.224 50.95 109.239C52.8756 110 55.317 110 60.1998 110C65.0826 110 67.524 110 69.4496 109.239C72.0173 108.224 74.0573 106.277 75.1207 103.827C75.6064 102.708 75.7967 101.407 75.871 99.5098C75.9802 96.7213 77.4783 94.1402 80.0107 92.7447C82.5431 91.3493 85.6351 91.4017 88.2205 92.7057C89.9797 93.5928 91.2547 94.0858 92.5126 94.2438C95.2681 94.5902 98.0548 93.8777 100.26 92.2632C101.914 91.0522 103.134 89.0348 105.576 84.9993C108.017 80.9643 109.237 78.9468 109.51 76.9748C109.872 74.3453 109.126 71.6857 107.434 69.5817C106.661 68.6213 105.576 67.8138 103.891 66.8037C101.416 65.3192 99.8222 62.7897 99.8222 59.9993C99.8222 57.2088 101.416 54.6803 103.891 53.1958C105.577 52.1853 106.662 51.3783 107.435 50.4173C109.126 48.3134 109.873 45.6541 109.51 43.0246C109.238 41.0525 108.017 39.0349 105.576 34.9998C103.135 30.9646 101.914 28.947 100.26 27.7361C98.0553 26.1216 95.2686 25.409 92.5131 25.7552C91.2552 25.9132 89.9797 26.4066 88.221 27.2938C85.6356 28.5977 82.5437 28.6499 80.0113 27.2546C77.4789 25.8593 75.9802 23.2781 75.8705 20.4895C75.7962 18.5922 75.6064 17.2914 75.1207 16.1729C74.0573 13.7227 72.0173 11.7759 69.4496 10.761Z" fill="#333333"/>
<path d="M75.9179 60C75.9179 68.2845 68.8807 75 60.1993 75C51.5179 75 44.4805 68.2845 44.4805 60C44.4805 51.7155 51.5179 45 60.1993 45C68.8807 45 75.9179 51.7155 75.9179 60Z" fill="#333333"/>
</svg>
