<svg width="120" height="120" viewBox="0 0 120 120" fill="none" xmlns="http://www.w3.org/2000/svg">
<path opacity="0.5" d="M15 52.0835C15 36.0954 15 28.1014 16.8876 25.412C18.7752 22.7227 26.2916 20.1498 41.3245 15.004L44.1886 14.0236C52.025 11.3412 55.943 10 60 10C64.057 10 67.975 11.3412 75.8115 14.0236L78.6755 15.004C93.7085 20.1498 101.225 22.7227 103.112 25.412C105 28.1014 105 36.0954 105 52.0835V59.957C105 88.147 83.805 101.827 70.507 107.636C66.9 109.212 65.0965 110 60 110C54.9035 110 53.1 109.212 49.4928 107.636C36.1948 101.827 15 88.147 15 59.957V52.0835Z" fill="#333333"/>
<path d="M70 45C70 50.523 65.523 55 60 55C54.477 55 50 50.523 50 45C50 39.4771 54.477 35 60 35C65.523 35 70 39.4771 70 45Z" fill="#333333"/>
<path d="M60 85C80 85 80 80.523 80 75C80 69.477 71.0455 65 60 65C48.9543 65 40 69.477 40 75C40 80.523 40 85 60 85Z" fill="#333333"/>
</svg>
