<svg width="120" height="120" viewBox="0 0 120 120" fill="none" xmlns="http://www.w3.org/2000/svg">
<path opacity="0.4" d="M77.4 15H37.6C20.35 15 10 25.3 10 42.6V82.35C10 99.7 20.35 110 37.6 110H77.35C94.65 110 104.95 99.7 104.95 82.4V42.6C105 25.3 94.65 15 77.4 15Z" fill="#333333"/>
<path d="M105.097 14.8989C96.1474 5.89894 87.3974 5.69894 78.1974 14.8989L72.5474 20.4989C72.0474 20.9989 71.8974 21.6989 72.0974 22.3489C75.5974 34.5989 85.3974 44.3989 97.6474 47.8989C97.7974 47.9489 98.0474 47.9489 98.1974 47.9489C98.6974 47.9489 99.1974 47.7489 99.5474 47.3989L105.097 41.7989C109.647 37.2489 111.897 32.8989 111.897 28.4489C111.897 23.9489 109.647 19.4989 105.097 14.8989Z" fill="#333333"/>
<path d="M89.2955 52.099C87.9455 51.449 86.6455 50.799 85.4455 50.049C84.4455 49.4492 83.4455 48.7992 82.4955 48.0992C81.6955 47.5992 80.7955 46.8492 79.8955 46.0992C79.7955 46.0492 79.4955 45.7992 79.0955 45.3992C77.5455 44.1492 75.8955 42.4492 74.3455 40.5992C74.2455 40.4992 73.9455 40.1992 73.6955 39.7492C73.1955 39.1992 72.4455 38.2492 71.7955 37.1992C71.2455 36.4992 70.5955 35.4992 69.9955 34.4492C69.2455 33.1992 68.5955 31.9492 67.9955 30.6492C67.3455 29.2492 66.8455 27.9492 66.3955 26.6992L39.4956 53.599C37.7456 55.349 36.0456 58.649 35.6956 61.099L33.5456 75.999C33.0956 79.149 33.9456 82.099 35.8956 84.049C37.5456 85.699 39.7956 86.549 42.2956 86.549C42.8456 86.549 43.3956 86.499 43.9456 86.449L58.7955 84.349C61.2455 83.999 64.5455 82.349 66.2955 80.549L93.1955 53.649C91.9455 53.249 90.6955 52.699 89.2955 52.099Z" fill="#333333"/>
</svg>
