<svg width="48" height="48" viewBox="0 0 48 48" fill="none" xmlns="http://www.w3.org/2000/svg">
<path opacity="0.5" d="M18.2569 41.2305C18.2569 41.2305 17.6409 40.7283 17.2893 39.5272L13.9492 26.8715L41.2313 8.20483" fill="#333333"/>
<path opacity="0.7" d="M18.2559 41.2308C19.2445 41.2308 19.8095 40.6903 20.5156 40.1497L26.8712 34.3385L19.6918 29.7437" fill="#333333"/>
<path d="M19.6933 29.7436L34.557 40.7344C36.1105 41.7561 37.4421 41.1885 37.8859 39.1452L43.989 9.8578C44.5438 7.36043 42.9903 6.22526 41.3259 7.01988L5.70601 21.096C3.37574 22.0041 3.37574 23.4798 5.26215 24.0474L14.4723 26.9989L35.5557 13.2633C36.5543 12.6957 37.4421 12.9228 36.7763 13.7174" fill="#333333"/>
</svg>
