<svg width="48" height="48" viewBox="0 0 48 48" fill="none" xmlns="http://www.w3.org/2000/svg">
<path opacity="0.5" d="M25.5 0C13.05 0 3 10.05 3 22.5C3 27.6 4.65 32.4 7.8 36.3L4.65 45.9C4.5 46.5 4.65 47.1 5.1 47.55C5.25 47.85 5.7 48 6 48C6.15 48 6.45 48 6.6 47.85L16.95 43.2C19.65 44.4 22.5 45 25.5 45C37.95 45 48 34.95 48 22.5C48 10.05 37.95 0 25.5 0Z" fill="#333333"/>
<path d="M38.55 30.75C37.95 32.55 35.7 34.05 33.75 34.35C33.3 34.5 32.85 34.5 32.25 34.5C31.05 34.5 29.25 34.2 26.1 32.85C22.5 31.35 18.9 28.2 16.05 24.15V24C15.15 22.65 13.5 20.1 13.5 17.4C13.5 14.1 15.15 12.45 15.75 11.7C16.5 10.95 17.55 10.5 18.75 10.5C19.05 10.5 19.2 10.5 19.5 10.5C20.55 10.5 21.3 10.8 22.05 12.3L22.65 13.5C23.1 14.7 23.7 16.05 23.85 16.2C24.3 17.1 24.3 17.85 23.85 18.6C23.7 19.05 23.4 19.35 23.1 19.65C22.95 19.95 22.8 20.1 22.65 20.1C22.5 20.25 22.5 20.25 22.35 20.4C22.8 21.15 23.7 22.5 24.9 23.55C26.7 25.2 28.05 25.65 28.8 25.95C29.1 25.65 29.4 25.05 29.85 24.6L30 24.3C30.75 23.25 31.95 22.95 33.15 23.4C33.75 23.7 37.05 25.2 37.05 25.2L37.35 25.35C37.8 25.65 38.4 25.8 38.7 26.4C39.3 27.75 38.85 29.7 38.55 30.75Z" fill="#333333"/>
</svg>
