<svg width="48" height="48" viewBox="0 0 48 48" fill="none" xmlns="http://www.w3.org/2000/svg">
<path opacity="0.5" d="M24 38.7822C22.7649 38.7822 21.6071 38.7393 20.5223 38.6527L15.336 44.7675C14.9422 45.2319 14.1818 44.954 14.1818 44.3457V37.3679C8.07531 35.0751 6 29.9471 6 21.6411C6 9.89019 10.1538 4.5 24 4.5C37.8462 4.5 42 9.89019 42 21.6411C42 33.3919 37.8462 38.7822 24 38.7822Z" fill="#333333"/>
<path fill-rule="evenodd" clip-rule="evenodd" d="M45 21.5678C45 7.81049 40.1538 1.5 24 1.5C7.84616 1.5 3 7.81049 3 21.5678C3 31.3583 5.45444 37.3773 12.6923 40.0343V44.6661C12.6923 46.3712 14.8315 47.1498 15.9396 45.8484L19.6746 41.4617C21.017 41.5778 22.457 41.6354 24 41.6354C40.1538 41.6354 45 35.3249 45 21.5678ZM19.3333 38.4246C20.404 38.5095 22.7808 38.4246 24 38.4246C37.6686 38.4246 41.7693 33.1238 41.7693 21.5678C41.7693 10.0116 37.6686 4.71083 24 4.71083C10.3314 4.71083 6.23078 10.0116 6.23078 21.5678C6.23078 29.7359 8.63845 35.0785 14.6667 37.3333V42C14.6667 42.5982 15.6112 43.1234 16 42.6667L19.3333 38.4246Z" fill="#333333"/>
<path d="M17.3148 18.2017L17.2539 18.2355L17.2002 18.2799C16.7853 18.6231 16.1634 19.5651 16.7082 20.7296C17.1621 21.6998 18.1735 23.6811 19.9507 25.1739C21.6888 26.634 23.5447 27.4192 24.7638 27.6763L24.8404 27.6926H24.9103C24.9136 27.6929 24.921 27.6936 24.9328 27.6954C24.9618 27.6995 24.9967 27.7055 25.0518 27.715C25.0612 27.7167 25.071 27.7185 25.0812 27.7203C25.4563 27.7866 26.3556 27.9456 27.1093 27.1945C27.5931 26.7125 28.0347 26.2098 28.2247 25.9838C28.3582 25.862 28.7934 25.6097 29.3439 25.7958C30.3864 26.1482 31.6258 26.9432 32.2249 27.3462C32.6887 27.6585 33.7386 28.4106 34.2118 28.7523C34.2511 28.7806 34.3438 28.874 34.3937 29.0031C34.4335 29.1063 34.455 29.2482 34.3591 29.4536C34.1812 29.8342 33.6399 30.561 32.9067 31.1967C32.1601 31.8441 31.1452 32.25 30.7608 32.25C30.7608 32.25 30.7608 32.2497 30.7537 32.2488C30.6667 32 30.6229 32.2311 30.4188 32.1852C30.1893 32.1338 29.8792 32.0529 29.5003 31.9389C28.7433 31.7111 27.7275 31.356 26.5543 30.8512C24.2062 29.8411 21.2502 28.2416 18.4827 25.8858C16.7419 24.4041 15.0996 22.3554 13.8207 20.4377C12.5311 18.5037 11.6684 16.7898 11.4337 15.9983L11.4172 15.9428L11.3925 15.8906C11.334 15.7671 11.2517 15.5033 11.25 15.204C11.2484 14.915 11.3209 14.6388 11.512 14.4099C12.142 13.6548 12.8091 12.9129 14.2807 12.2009C14.4178 12.1346 14.6326 12.0761 14.8436 12.0727C15.06 12.0693 15.1728 12.123 15.2178 12.1625C15.7809 12.6563 16.6537 13.5279 17.2417 14.2727C17.5456 14.6575 17.9127 15.1463 18.2187 15.5709C18.3717 15.7833 18.5065 15.9759 18.6093 16.1291C18.6607 16.2059 18.7018 16.2693 18.7321 16.3182C18.7528 16.3518 18.7639 16.3714 18.7686 16.3798C18.7711 16.3884 18.7827 16.4247 18.7929 16.4909C18.8056 16.5741 18.8116 16.6766 18.8031 16.7837C18.7852 17.0027 18.7132 17.1786 18.5838 17.2973C18.1443 17.6997 17.5485 18.0723 17.3148 18.2017ZM24.4149 9.77419L24.4162 9.77291C24.427 9.76278 24.4491 9.75 24.4839 9.75C30.4717 9.75 35.2476 14.3068 35.25 19.8345C35.25 19.8345 35.2474 19.8377 35.245 19.84C35.2342 19.8501 35.212 19.8629 35.1774 19.8629C35.1427 19.8629 35.1206 19.8501 35.1097 19.84C35.1073 19.8377 35.1048 19.8345 35.1048 19.8345C35.1024 14.2492 30.3048 9.79839 24.4839 9.79839C24.4491 9.79839 24.427 9.78561 24.4162 9.77549L24.4149 9.77419ZM24.4162 15.969L24.4149 15.9678L24.4162 15.9665C24.427 15.9564 24.4491 15.9435 24.4839 15.9435C26.8374 15.9435 28.6669 17.7273 28.6693 19.8345C28.6693 19.8345 28.6668 19.8377 28.6644 19.84C28.6536 19.8501 28.6315 19.8629 28.5967 19.8629C28.5621 19.8629 28.5399 19.8501 28.5291 19.84C28.5267 19.8377 28.5241 19.8345 28.5241 19.8345C28.5217 17.6698 26.6704 15.992 24.4839 15.992C24.4491 15.992 24.427 15.9792 24.4162 15.969ZM24.4162 12.8723L24.4149 12.871L24.4162 12.8697C24.427 12.8596 24.4491 12.8468 24.4839 12.8468C28.6546 12.8468 31.9572 16.017 31.9597 19.8345C31.9597 19.8345 31.9572 19.8377 31.9548 19.84C31.944 19.8501 31.9218 19.8629 31.8871 19.8629C31.8523 19.8629 31.8301 19.8501 31.8195 19.84C31.8171 19.8377 31.8145 19.8345 31.8145 19.8345C31.8121 15.9595 28.4875 12.8952 24.4839 12.8952C24.4491 12.8952 24.427 12.8824 24.4162 12.8723Z" fill="#333333"/>
<path d="M25.0518 27.7151C24.9967 27.7055 24.9618 27.6995 24.9328 27.6954C24.921 27.6936 24.9136 27.6929 24.9103 27.6926H24.8404L24.7638 27.6763C23.5447 27.4192 21.6888 26.634 19.9507 25.1739C18.1735 23.6811 17.1621 21.6998 16.7082 20.7296C16.1634 19.5651 16.7853 18.6231 17.2002 18.2799L17.2539 18.2355L17.3148 18.2017C17.5485 18.0723 18.1443 17.6997 18.5838 17.2973C18.7132 17.1786 18.7852 17.0027 18.8031 16.7837C18.8116 16.6766 18.8056 16.5741 18.7929 16.4909C18.7827 16.4247 18.7711 16.3884 18.7686 16.3798C18.7639 16.3714 18.7528 16.3518 18.7321 16.3182C18.7018 16.2693 18.6607 16.2059 18.6093 16.1291C18.5065 15.9759 18.3717 15.7833 18.2187 15.5709C17.9127 15.1463 17.5456 14.6575 17.2417 14.2727C16.6537 13.5279 15.7809 12.6563 15.2178 12.1625C15.1728 12.123 15.06 12.0693 14.8436 12.0727C14.6326 12.0761 14.4178 12.1346 14.2807 12.2009C12.8091 12.9129 12.142 13.6548 11.512 14.4099C11.3209 14.6388 11.2484 14.915 11.25 15.204C11.2517 15.5032 11.334 15.7671 11.3925 15.8906L11.4172 15.9428L11.4337 15.9982C11.6684 16.7898 12.5311 18.5037 13.8207 20.4377C15.0996 22.3554 16.7419 24.4041 18.4827 25.8858C21.2502 28.2416 24.2062 29.8411 26.5543 30.8512C27.7275 31.356 28.7433 31.7111 29.5003 31.9389C29.8792 32.0529 30.1893 32.1338 30.4188 32.1852C30.6229 32.2311 30.6667 32 30.7537 32.2488C30.7608 32.2497 30.7608 32.25 30.7608 32.25C31.1452 32.25 32.1601 31.8441 32.9067 31.1967C33.6399 30.561 34.1812 29.8343 34.3591 29.4536C34.455 29.2482 34.4335 29.1063 34.3936 29.0031C34.3438 28.874 34.2511 28.7806 34.2118 28.7523C33.7386 28.4106 32.6887 27.6585 32.2249 27.3462C31.6258 26.9432 30.3864 26.1482 29.3439 25.7958C28.7934 25.6097 28.3582 25.862 28.2247 25.9838C28.0347 26.2098 27.5931 26.7125 27.1093 27.1946C26.3556 27.9456 25.4563 27.7866 25.0812 27.7203C25.071 27.7185 25.0612 27.7167 25.0518 27.7151ZM25.0518 27.7151L22.7754 27.7203M24.4149 9.77419L24.4162 9.77291C24.427 9.76278 24.4491 9.75 24.4839 9.75C30.4717 9.75 35.2476 14.3068 35.25 19.8345C35.25 19.8345 35.2474 19.8377 35.245 19.8401C35.2342 19.8501 35.212 19.8629 35.1774 19.8629C35.1427 19.8629 35.1205 19.8501 35.1097 19.8401C35.1073 19.8377 35.1048 19.8345 35.1048 19.8345C35.1024 14.2492 30.3048 9.79839 24.4839 9.79839C24.4491 9.79839 24.427 9.78561 24.4162 9.77549L24.4149 9.77419ZM24.4162 15.969L24.4149 15.9678L24.4162 15.9665C24.427 15.9564 24.4491 15.9435 24.4839 15.9435C26.8374 15.9435 28.6669 17.7273 28.6693 19.8345C28.6693 19.8345 28.6668 19.8377 28.6644 19.8401C28.6536 19.8501 28.6315 19.8629 28.5967 19.8629C28.5621 19.8629 28.5399 19.8501 28.5291 19.8401C28.5267 19.8377 28.5241 19.8345 28.5241 19.8345C28.5217 17.6698 26.6704 15.9919 24.4839 15.9919C24.4491 15.9919 24.427 15.9792 24.4162 15.969ZM24.4162 12.8723L24.4149 12.871L24.4162 12.8697C24.427 12.8596 24.4491 12.8468 24.4839 12.8468C28.6546 12.8468 31.9572 16.017 31.9597 19.8345C31.9597 19.8345 31.9572 19.8377 31.9548 19.8401C31.944 19.8501 31.9218 19.8629 31.8871 19.8629C31.8523 19.8629 31.8301 19.8501 31.8195 19.8401C31.8171 19.8377 31.8145 19.8345 31.8145 19.8345C31.8121 15.9595 28.4875 12.8952 24.4839 12.8952C24.4491 12.8952 24.427 12.8824 24.4162 12.8723Z" stroke="#333333" stroke-linecap="round"/>
</svg>
