<svg width="445" height="13" viewBox="0 0 445 13" fill="none" xmlns="http://www.w3.org/2000/svg">
<g clip-path="url(#clip0_2001_6699)">
<path d="M42.656 13H0V0H42.656V13Z" fill="black"/>
<path d="M132.741 13H90.0854V0H132.741V13Z" fill="black"/>
<path d="M222.827 13H180.171V0H222.827V13Z" fill="black"/>
<path d="M312.912 13H270.256V0H312.912V13Z" fill="black"/>
<path d="M402.998 13H360.342V0H402.998V13Z" fill="black"/>
<path d="M493.083 13H450.427V0H493.083V13Z" fill="black"/>
<path d="M583.168 13H540.512V0H583.168V13Z" fill="black"/>
<path d="M673.254 13H630.598V0H673.254V13Z" fill="black"/>
<path d="M763.339 13H720.683V0H763.339V13Z" fill="black"/>
<path d="M853.425 13H810.769V0H853.425V13Z" fill="black"/>
<path d="M943.51 13H900.854V0H943.51V13Z" fill="black"/>
<path d="M1033.6 13H990.939V0H1033.6V13Z" fill="black"/>
<path d="M1123.68 13H1081.02V0H1123.68V13Z" fill="black"/>
<path d="M1213.77 13H1171.11V0H1213.77V13Z" fill="black"/>
<path d="M1303.85 13H1261.2V0H1303.85V13Z" fill="black"/>
<path d="M1393.94 13H1351.28V0H1393.94V13Z" fill="black"/>
<path d="M1484.02 13H1441.37V0H1484.02V13Z" fill="black"/>
<path d="M1574.11 13H1531.45V0H1574.11V13Z" fill="black"/>
<path d="M1664.19 13H1621.54V0H1664.19V13Z" fill="black"/>
<path d="M1754.28 13H1711.62V0H1754.28V13Z" fill="black"/>
<path d="M1844.36 13H1801.71V0H1844.36V13Z" fill="black"/>
<path d="M1934.45 13H1891.79V0H1934.45V13Z" fill="black"/>
<path d="M2024.53 13H1981.88V0H2024.53V13Z" fill="black"/>
<path d="M2114.62 13H2071.96V0H2114.62V13Z" fill="black"/>
<path d="M2204.71 13H2162.05V0H2204.71V13Z" fill="black"/>
<path d="M2294.79 13H2252.13V0H2294.79V13Z" fill="black"/>
<path d="M2384.88 13H2342.22V0H2384.88V13Z" fill="black"/>
<path d="M2474.96 13H2432.31V0H2474.96V13Z" fill="black"/>
<path d="M2565.05 13H2522.39V0H2565.05V13Z" fill="black"/>
<path d="M2655.13 13H2612.48V0H2655.13V13Z" fill="black"/>
<path d="M2745.22 13H2702.56V0H2745.22V13Z" fill="black"/>
<path d="M2835.3 13H2792.65V0H2835.3V13Z" fill="black"/>
<path d="M2925.39 13H2882.73V0H2925.39V13Z" fill="black"/>
<path d="M3015.47 13H2972.82V0H3015.47V13Z" fill="black"/>
<path d="M3105.56 13H3062.9V0H3105.56V13Z" fill="black"/>
<path d="M3195.65 13H3152.99V0H3195.65V13Z" fill="black"/>
<path d="M3285.73 13H3243.07V0H3285.73V13Z" fill="black"/>
<path d="M3375.82 13H3333.16V0H3375.82V13Z" fill="black"/>
<path d="M3465.9 13H3423.25V0H3465.9V13Z" fill="black"/>
<path d="M3555.99 13H3513.33V0H3555.99V13Z" fill="black"/>
<path d="M3646.07 13H3603.42V0H3646.07V13Z" fill="black"/>
<path d="M3736.16 13H3693.5V0H3736.16V13Z" fill="black"/>
<path d="M3826.24 13H3783.59V0H3826.24V13Z" fill="black"/>
<path d="M3916.33 13H3873.67V0H3916.33V13Z" fill="black"/>
<path d="M4006.41 13H3963.76V0H4006.41V13Z" fill="black"/>
<path d="M4096.5 13H4053.84V0H4096.5V13Z" fill="black"/>
<path d="M4186.58 13H4143.93V0H4186.58V13Z" fill="black"/>
<path d="M4276.67 13H4234.01V0H4276.67V13Z" fill="black"/>
<path d="M4366.76 13H4324.1V0H4366.76V13Z" fill="black"/>
<path d="M4456.84 13H4414.18V0H4456.84V13Z" fill="black"/>
<path d="M4546.93 13H4504.27V0H4546.93V13Z" fill="black"/>
<path d="M4637.01 13H4594.36V0H4637.01V13Z" fill="black"/>
<path d="M4727.1 13H4684.44V0H4727.1V13Z" fill="black"/>
<path d="M4817.18 13H4774.53V0H4817.18V13Z" fill="black"/>
<path d="M4907.27 13H4864.61V0H4907.27V13Z" fill="black"/>
<path d="M4997.35 13H4954.7V0H4997.35V13Z" fill="black"/>
<path d="M5087.44 13H5044.78V0H5087.44V13Z" fill="black"/>
<path d="M5177.52 13H5134.87V0H5177.52V13Z" fill="black"/>
<path d="M5267.61 13H5224.95V0H5267.61V13Z" fill="black"/>
<path d="M5357.69 13H5315.04V0H5357.69V13Z" fill="black"/>
<path d="M5447.78 13H5405.12V0H5447.78V13Z" fill="black"/>
<path d="M5537.86 13H5495.21V0H5537.86V13Z" fill="black"/>
<path d="M5627.95 13H5585.29V0H5627.95V13Z" fill="black"/>
<path d="M5718.04 13H5675.38V0H5718.04V13Z" fill="black"/>
<path d="M5808.12 13H5765.47V0H5808.12V13Z" fill="black"/>
<path d="M5898.21 13H5855.55V0H5898.21V13Z" fill="black"/>
<path d="M5988.29 13H5945.64V0H5988.29V13Z" fill="black"/>
<path d="M6078.38 13H6035.72V0H6078.38V13Z" fill="black"/>
<path d="M6168.46 13H6125.81V0H6168.46V13Z" fill="black"/>
<path d="M6258.55 13H6215.89V0H6258.55V13Z" fill="black"/>
<path d="M6348.63 13H6305.98V0H6348.63V13Z" fill="black"/>
<path d="M6438.72 13H6396.06V0H6438.72V13Z" fill="black"/>
<path d="M6528.8 13H6486.15V0H6528.8V13Z" fill="black"/>
<path d="M6618.89 13H6576.23V0H6618.89V13Z" fill="black"/>
<path d="M6708.98 13H6666.32V0H6708.98V13Z" fill="black"/>
<path d="M6799.06 13H6756.4V0H6799.06V13Z" fill="black"/>
<path d="M6889.15 13H6846.49V0H6889.15V13Z" fill="black"/>
<path d="M6979.23 13H6936.58V0H6979.23V13Z" fill="black"/>
<path d="M7069.32 13H7026.66V0H7069.32V13Z" fill="black"/>
<path d="M7159.4 13H7116.75V0H7159.4V13Z" fill="black"/>
<path d="M7249.49 13H7206.83V0H7249.49V13Z" fill="black"/>
<path d="M7339.57 13H7296.92V0H7339.57V13Z" fill="black"/>
<path d="M7429.66 13H7387V0H7429.66V13Z" fill="black"/>
<path d="M7519.74 13H7477.09V0H7519.74V13Z" fill="black"/>
<path d="M7609.83 13H7567.17V0H7609.83V13Z" fill="black"/>
<path d="M7699.91 13H7657.26V0H7699.91V13Z" fill="black"/>
<path d="M7790 13H7747.34V0H7790V13Z" fill="black"/>
</g>
<defs>
<clipPath id="clip0_2001_6699">
<rect width="445" height="13" fill="white"/>
</clipPath>
</defs>
</svg>
