<svg width="26" height="26" viewBox="0 0 26 26" fill="none" xmlns="http://www.w3.org/2000/svg">
<path d="M9.12411 22.3362C11.026 23.3344 11.977 23.8334 13 23.8334V13.0001L2.85781 7.66211C2.84288 7.68612 2.82822 7.71034 2.81381 7.73481C2.16663 8.83385 2.16663 10.2015 2.16663 12.9367V13.0634C2.16663 15.7986 2.16663 17.1664 2.81381 18.2654C3.46098 19.3644 4.62647 19.9761 6.95744 21.1993L9.12411 22.3362Z" fill="#EBEBE7"/>
<path opacity="0.7" d="M19.0422 4.80065L16.8756 3.66364C14.9737 2.66555 14.0227 2.1665 12.9997 2.1665C11.9767 2.1665 11.0258 2.66555 9.12384 3.66364L6.95717 4.80065C4.6781 5.99665 3.51319 6.60798 2.85754 7.66186L12.9997 12.9998L23.1419 7.66186C22.4861 6.60798 21.3212 5.99665 19.0422 4.80065Z" fill="#EBEBE7"/>
<path opacity="0.5" d="M23.1861 7.73481C23.1717 7.71034 23.1571 7.68612 23.1422 7.66211L13 13.0001V23.8334C14.023 23.8334 14.9739 23.3344 16.8758 22.3362L19.0425 21.1993C21.3735 19.9761 22.539 19.3644 23.1861 18.2654C23.8333 17.1664 23.8333 15.7986 23.8333 13.0634V12.9367C23.8333 10.2015 23.8333 8.83385 23.1861 7.73481Z" fill="#EBEBE7"/>
<path d="M6.85025 4.85767C6.88581 4.839 6.92166 4.82019 6.95779 4.80123L8.57578 3.95215L18.4349 9.3747L22.7939 7.19518C22.9431 7.36411 23.0728 7.5421 23.1864 7.73514C23.3485 8.01033 23.4699 8.30235 23.5611 8.62847L19.2295 10.7942V14.0838C19.2295 14.5325 18.8657 14.8963 18.417 14.8963C17.9682 14.8963 17.6045 14.5325 17.6045 14.0838V11.6067L13.8128 13.5025V23.7298C13.5345 23.7991 13.2699 23.8338 13.0003 23.8338C12.7308 23.8338 12.4661 23.7991 12.1878 23.7298V13.5025L2.43958 8.62847C2.53064 8.30235 2.6521 8.01033 2.81415 7.73514C2.92782 7.5421 3.05748 7.36411 3.20664 7.19518L13.0003 12.092L16.6687 10.2578L6.85025 4.85767Z" fill="#EBEBE7"/>
</svg>
