<svg width="26" height="26" viewBox="0 0 26 26" fill="none" xmlns="http://www.w3.org/2000/svg">
<path opacity="0.5" d="M7.84877 2.1665H18.1512C19.4067 2.1665 20.0344 2.1665 20.5407 2.34266C21.5007 2.67671 22.2544 3.45263 22.5788 4.44092C22.75 4.9621 22.75 5.60831 22.75 6.90074V22.0719C22.75 23.0016 21.6829 23.495 21.0079 22.8772C20.6113 22.5143 20.0137 22.5143 19.6171 22.8772L19.0938 23.3562C18.3987 23.9922 17.3513 23.9922 16.6563 23.3562C15.9612 22.7202 14.9138 22.7202 14.2188 23.3562C13.5237 23.9922 12.4763 23.9922 11.7812 23.3562C11.0862 22.7202 10.0388 22.7202 9.34375 23.3562C8.64869 23.9922 7.60131 23.9922 6.90625 23.3562L6.38289 22.8772C5.98632 22.5143 5.38868 22.5143 4.99211 22.8772C4.31708 23.495 3.25 23.0016 3.25 22.0719V6.90074C3.25 5.60831 3.25 4.9621 3.42111 4.44092C3.7456 3.45263 4.49932 2.67671 5.45934 2.34266C5.9656 2.1665 6.59332 2.1665 7.84877 2.1665Z" fill="#333333"/>
<path d="M7.58325 7.3125C7.13452 7.3125 6.77075 7.67627 6.77075 8.125C6.77075 8.57373 7.13452 8.9375 7.58325 8.9375H8.12492C8.57365 8.9375 8.93742 8.57373 8.93742 8.125C8.93742 7.67627 8.57365 7.3125 8.12492 7.3125H7.58325Z" fill="#333333"/>
<path d="M11.375 7.3125C10.9263 7.3125 10.5625 7.67627 10.5625 8.125C10.5625 8.57373 10.9263 8.9375 11.375 8.9375H18.4167C18.8654 8.9375 19.2292 8.57373 19.2292 8.125C19.2292 7.67627 18.8654 7.3125 18.4167 7.3125H11.375Z" fill="#333333"/>
<path d="M7.58325 11.104C7.13452 11.104 6.77075 11.4678 6.77075 11.9165C6.77075 12.3652 7.13452 12.729 7.58325 12.729H8.12492C8.57365 12.729 8.93742 12.3652 8.93742 11.9165C8.93742 11.4678 8.57365 11.104 8.12492 11.104H7.58325Z" fill="#333333"/>
<path d="M11.375 11.104C10.9263 11.104 10.5625 11.4678 10.5625 11.9165C10.5625 12.3652 10.9263 12.729 11.375 12.729H18.4167C18.8654 12.729 19.2292 12.3652 19.2292 11.9165C19.2292 11.4678 18.8654 11.104 18.4167 11.104H11.375Z" fill="#333333"/>
<path d="M7.58325 14.896C7.13452 14.896 6.77075 15.2598 6.77075 15.7085C6.77075 16.1572 7.13452 16.521 7.58325 16.521H8.12492C8.57365 16.521 8.93742 16.1572 8.93742 15.7085C8.93742 15.2598 8.57365 14.896 8.12492 14.896H7.58325Z" fill="#333333"/>
<path d="M11.375 14.896C10.9263 14.896 10.5625 15.2598 10.5625 15.7085C10.5625 16.1572 10.9263 16.521 11.375 16.521H18.4167C18.8654 16.521 19.2292 16.1572 19.2292 15.7085C19.2292 15.2598 18.8654 14.896 18.4167 14.896H11.375Z" fill="#333333"/>
</svg>
