<svg width="64" height="40" viewBox="0 0 64 40" fill="none" xmlns="http://www.w3.org/2000/svg">
<g clip-path="url(#clip0_2003_1288)">
<path d="M0 3.37389C0 1.4949 1.52869 -0.0283203 3.41265 -0.0283203H60.5874C62.4721 -0.0283203 64 1.49454 64 3.37389V36.6257C64 38.5047 62.4713 40.0279 60.5874 40.0279H3.41265C1.52789 40.0279 0 38.505 0 36.6257V3.37389ZM44.7584 12.1065C43.8563 11.7693 42.4428 11.4073 40.6775 11.4073C36.1784 11.4073 33.0091 13.6653 32.9821 16.9016C32.9568 19.2938 35.2447 20.6283 36.9718 21.4247C38.7441 22.2407 39.34 22.7612 39.3315 23.4898C39.3203 24.6058 37.9162 25.1156 36.6074 25.1156C34.785 25.1156 33.8168 24.8633 32.3215 24.2417L31.7347 23.977L31.0957 27.7041C32.1592 28.1687 34.1258 28.5714 36.1677 28.5923C40.954 28.5923 44.0611 26.3601 44.0965 22.9043C44.1136 21.0104 42.9005 19.5691 40.2736 18.3809C38.6821 17.6107 37.7074 17.0968 37.7177 16.317C37.7177 15.6249 38.5427 14.885 40.3252 14.885C41.8142 14.8619 42.8928 15.1855 43.7331 15.5228L44.1412 15.7149L44.7584 12.1065ZM56.4343 11.7125H52.9159C51.826 11.7125 51.0103 12.009 50.5316 13.0932L43.7694 28.3505H48.5507C48.5507 28.3505 49.3325 26.299 49.5093 25.8486C50.0318 25.8486 54.6766 25.8558 55.3407 25.8558C55.4769 26.4386 55.8947 28.3505 55.8947 28.3505H60.1197L56.4343 11.7125ZM50.8196 22.4433C51.1962 21.4841 52.6337 17.7894 52.6337 17.7894C52.6069 17.8337 53.0075 16.8255 53.2375 16.2004L53.5453 17.6358C53.5453 17.6358 54.4171 21.6099 54.5993 22.4433L50.8196 22.4433ZM23.6928 28.3452H28.2442L31.093 11.6966H26.5396L23.6928 28.3452ZM14.9409 20.7539L13.3446 13.104C13.0689 12.0498 12.2695 11.7352 11.2806 11.6985H3.93843L3.88032 12.0449C5.66634 12.4758 7.26344 13.0975 8.66311 13.8709L12.7112 28.3308L17.5287 28.3253L24.697 11.7088H19.8739L15.4161 23.0619L14.9409 20.7539Z" fill="#EBEBE7"/>
</g>
<defs>
<clipPath id="clip0_2003_1288">
<rect width="64" height="40" fill="white"/>
</clipPath>
</defs>
</svg>
