<svg width="94" height="22" viewBox="0 0 94 22" fill="none" xmlns="http://www.w3.org/2000/svg">
<path d="M26.1718 4.5C27.4274 4.5 28.4327 4.77381 29.0744 5.02896L28.6354 7.7586L28.3451 7.61327C27.7474 7.35812 26.9803 7.11333 25.9213 7.13077C24.6535 7.13077 24.0667 7.69054 24.0667 8.21403C24.0594 8.80398 24.7526 9.19275 25.8846 9.77536C27.7529 10.6742 28.6158 11.7645 28.6036 13.1972C28.5784 15.8114 26.3685 17.5 22.9643 17.5C21.512 17.4842 20.1132 17.1796 19.3568 16.8281L19.8113 14.0087L20.2287 14.2089C21.2922 14.6791 21.9808 14.87 23.277 14.87C24.2079 14.87 25.2065 14.4843 25.2145 13.6401C25.2205 13.0889 24.7967 12.6952 23.5362 12.0779C22.3078 11.4755 20.6805 10.4659 20.6985 8.65626C20.7177 6.20814 22.9719 4.5 26.1718 4.5Z" fill="#1A5FD0"/>
<path d="M17.3287 17.3131H14.0916L16.1163 4.71886H19.3549L17.3287 17.3131Z" fill="#1A5FD0"/>
<path d="M6.7314 5.78354L7.86678 11.5704L8.20478 13.3164L11.3754 4.72807H14.8058L9.70735 17.2981L6.28093 17.3022L3.40174 6.36368C2.40623 5.7786 1.2703 5.30827 0 4.98231L0.0413318 4.72028H5.26342C5.96679 4.74807 6.53536 4.98605 6.7314 5.78354Z" fill="#1A5FD0"/>
<path fill-rule="evenodd" clip-rule="evenodd" d="M37.3788 4.7309H34.8764C34.1011 4.7309 33.521 4.95517 33.1805 5.7753L28.3709 17.3171H31.7716C31.7716 17.3171 32.3277 15.7652 32.4534 15.4245C32.6281 15.4245 33.4507 15.4257 34.3224 15.427C35.3053 15.4284 36.3507 15.4299 36.601 15.4299C36.6978 15.8708 36.995 17.3171 36.995 17.3171H40L37.3788 4.7309ZM34.6756 9.32792C34.6756 9.32792 33.6532 12.1229 33.3854 12.8485L36.0737 12.8484C35.9441 12.218 35.324 9.21173 35.324 9.21173L35.1051 8.12589C35.0194 8.37354 34.9004 8.70069 34.8093 8.95132C34.7264 9.17924 34.6665 9.34388 34.6756 9.32792Z" fill="#1A5FD0"/>
<path d="M49.6953 10.8467L55.6104 17.5H52.71L47.542 11.7168H47.4717V17.5H45.2041V4.81738H47.4717V10.3633H47.542L52.5078 4.81738H55.127L49.6953 10.8467ZM59.8291 15.9971C60.4561 15.9971 60.9834 15.8125 61.4111 15.4434C61.8447 15.0684 62.0615 14.6025 62.0615 14.0459V13.334L59.9082 13.4658C59.3809 13.501 58.9707 13.6328 58.6777 13.8613C58.3906 14.084 58.2471 14.3799 58.2471 14.749C58.2471 15.1299 58.3906 15.4346 58.6777 15.6631C58.9707 15.8857 59.3545 15.9971 59.8291 15.9971ZM59.1699 17.6494C58.2617 17.6494 57.5146 17.3887 56.9287 16.8672C56.3486 16.3457 56.0586 15.6689 56.0586 14.8369C56.0586 14.0107 56.3633 13.3574 56.9727 12.877C57.5879 12.3965 58.4639 12.1211 59.6006 12.0508L62.0615 11.9102V11.2422C62.0615 10.7559 61.9062 10.3779 61.5957 10.1084C61.291 9.83887 60.8662 9.7041 60.3213 9.7041C59.8115 9.7041 59.3955 9.81836 59.0732 10.0469C58.751 10.2754 58.5547 10.5859 58.4844 10.9785H56.4541C56.501 10.0938 56.8789 9.37598 57.5879 8.8252C58.3027 8.26855 59.2432 7.99023 60.4092 7.99023C61.5635 7.99023 62.4863 8.27148 63.1777 8.83398C63.875 9.39648 64.2236 10.1465 64.2236 11.084V17.5H62.1143V16.0146H62.0703C61.8066 16.5127 61.4082 16.9111 60.875 17.21C60.3418 17.5029 59.7734 17.6494 59.1699 17.6494ZM71.2637 8.02539C72.4473 8.02539 73.3877 8.45605 74.085 9.31738C74.7822 10.1787 75.1309 11.3535 75.1309 12.8418C75.1309 14.3242 74.7852 15.4961 74.0938 16.3574C73.4023 17.2188 72.4707 17.6494 71.2988 17.6494C70.6309 17.6494 70.042 17.5 69.5322 17.2012C69.0225 16.8965 68.6387 16.4805 68.3809 15.9531H68.3369V20.5674H66.1484V8.18359H68.2842V9.79199H68.3281C68.5977 9.24121 68.9873 8.81055 69.4971 8.5C70.0068 8.18359 70.5957 8.02539 71.2637 8.02539ZM70.5957 15.8564C71.3047 15.8564 71.8643 15.5869 72.2744 15.0479C72.6846 14.5029 72.8896 13.7676 72.8896 12.8418C72.8896 11.9219 72.6816 11.1895 72.2656 10.6445C71.8555 10.0996 71.2988 9.82715 70.5957 9.82715C69.916 9.82715 69.3682 10.1025 68.9521 10.6533C68.5361 11.2041 68.3252 11.9336 68.3193 12.8418C68.3252 13.7559 68.5361 14.4883 68.9521 15.0391C69.3682 15.584 69.916 15.8564 70.5957 15.8564ZM83.7178 8.18359V9.87109H80.8525V17.5H78.6816V9.87109H75.8164V8.18359H83.7178ZM88.2354 15.9971C88.8623 15.9971 89.3896 15.8125 89.8174 15.4434C90.251 15.0684 90.4678 14.6025 90.4678 14.0459V13.334L88.3145 13.4658C87.7871 13.501 87.377 13.6328 87.084 13.8613C86.7969 14.084 86.6533 14.3799 86.6533 14.749C86.6533 15.1299 86.7969 15.4346 87.084 15.6631C87.377 15.8857 87.7607 15.9971 88.2354 15.9971ZM87.5762 17.6494C86.668 17.6494 85.9209 17.3887 85.335 16.8672C84.7549 16.3457 84.4648 15.6689 84.4648 14.8369C84.4648 14.0107 84.7695 13.3574 85.3789 12.877C85.9941 12.3965 86.8701 12.1211 88.0068 12.0508L90.4678 11.9102V11.2422C90.4678 10.7559 90.3125 10.3779 90.002 10.1084C89.6973 9.83887 89.2725 9.7041 88.7275 9.7041C88.2178 9.7041 87.8018 9.81836 87.4795 10.0469C87.1572 10.2754 86.9609 10.5859 86.8906 10.9785H84.8604C84.9072 10.0938 85.2852 9.37598 85.9941 8.8252C86.709 8.26855 87.6494 7.99023 88.8154 7.99023C89.9697 7.99023 90.8926 8.27148 91.584 8.83398C92.2812 9.39648 92.6299 10.1465 92.6299 11.084V17.5H90.5205V16.0146H90.4766C90.2129 16.5127 89.8145 16.9111 89.2812 17.21C88.748 17.5029 88.1797 17.6494 87.5762 17.6494Z" fill="#333333"/>
</svg>
