<svg width="40" height="40" viewBox="0 0 40 40" fill="none" xmlns="http://www.w3.org/2000/svg">
<path opacity="0.5" d="M21.25 0C10.875 0 2.5 8.375 2.5 18.75C2.5 23 3.875 27 6.5 30.25L3.875 38.25C3.75 38.75 3.875 39.25 4.25 39.625C4.375 39.875 4.75 40 5 40C5.125 40 5.375 40 5.5 39.875L14.125 36C16.375 37 18.75 37.5 21.25 37.5C31.625 37.5 40 29.125 40 18.75C40 8.375 31.625 0 21.25 0Z" fill="#EBEBE7"/>
<path d="M32.125 25.625C31.625 27.125 29.75 28.375 28.125 28.625C27.75 28.75 27.375 28.75 26.875 28.75C25.875 28.75 24.375 28.5 21.75 27.375C18.75 26.125 15.75 23.5 13.375 20.125V20C12.625 18.875 11.25 16.75 11.25 14.5C11.25 11.75 12.625 10.375 13.125 9.75C13.75 9.125 14.625 8.75 15.625 8.75C15.875 8.75 16 8.75 16.25 8.75C17.125 8.75 17.75 9 18.375 10.25L18.875 11.25C19.25 12.25 19.75 13.375 19.875 13.5C20.25 14.25 20.25 14.875 19.875 15.5C19.75 15.875 19.5 16.125 19.25 16.375C19.125 16.625 19 16.75 18.875 16.75C18.75 16.875 18.75 16.875 18.625 17C19 17.625 19.75 18.75 20.75 19.625C22.25 21 23.375 21.375 24 21.625C24.25 21.375 24.5 20.875 24.875 20.5L25 20.25C25.625 19.375 26.625 19.125 27.625 19.5C28.125 19.75 30.875 21 30.875 21L31.125 21.125C31.5 21.375 32 21.5 32.25 22C32.75 23.125 32.375 24.75 32.125 25.625Z" fill="#EBEBE7"/>
</svg>
